<svg width="24" height="24" viewBox="0 0 24 24" fill="none" xmlns="http://www.w3.org/2000/svg">
  <path d="M24 5.457V18.909C24 19.454 23.552 19.909 23 19.909H1C0.448 19.909 0 19.454 0 18.909V5.457C0 5.325 0.022 5.198 0.063 5.077L12 12.779L23.937 5.077C23.978 5.198 24 5.325 24 5.457Z" fill="currentColor"/>
  <path d="M23.937 4.077C23.826 3.989 23.695 3.909 23.547 3.845C23.385 3.775 23.207 3.737 23 3.737H1C0.793 3.737 0.615 3.775 0.453 3.845C0.305 3.909 0.174 3.989 0.063 4.077L12 11.779L23.937 4.077Z" fill="currentColor"/>
  <path d="M0 5.909V18.909C0 19.454 0.448 19.909 1 19.909H23C23.552 19.909 24 19.454 24 18.909V5.909L12 13.611L0 5.909Z" fill="currentColor"/>
</svg>

