<svg width="40" height="40" viewBox="0 0 40 40" fill="none" xmlns="http://www.w3.org/2000/svg">
  <!-- Background circle with gradient -->
  <circle cx="20" cy="20" r="20" fill="url(#gradient1)"/>
  
  <!-- Inner circle for depth -->
  <circle cx="20" cy="20" r="17" fill="url(#gradient2)" opacity="0.3"/>
  
  <!-- First R -->
  <g transform="translate(8, 10)">
    <!-- R stem -->
    <rect x="0" y="0" width="3" height="20" fill="currentColor"/>
    <!-- R top horizontal -->
    <rect x="0" y="0" width="10" height="3" fill="currentColor"/>
    <!-- R middle horizontal -->
    <rect x="0" y="8.5" width="8" height="3" fill="currentColor"/>
    <!-- R top vertical -->
    <rect x="7" y="0" width="3" height="11.5" fill="currentColor"/>
    <!-- R diagonal leg -->
    <rect x="6" y="11.5" width="3" height="8.5" fill="currentColor" transform="rotate(25 7.5 11.5)"/>
  </g>
  
  <!-- Second R (overlapped and slightly offset) -->
  <g transform="translate(18, 10)" opacity="0.85">
    <!-- R stem -->
    <rect x="0" y="0" width="3" height="20" fill="currentColor"/>
    <!-- R top horizontal -->
    <rect x="0" y="0" width="10" height="3" fill="currentColor"/>
    <!-- R middle horizontal -->
    <rect x="0" y="8.5" width="8" height="3" fill="currentColor"/>
    <!-- R top vertical -->
    <rect x="7" y="0" width="3" height="11.5" fill="currentColor"/>
    <!-- R diagonal leg -->
    <rect x="6" y="11.5" width="3" height="8.5" fill="currentColor" transform="rotate(25 7.5 11.5)"/>
  </g>
  
  <!-- Decorative elements -->
  <circle cx="35" cy="8" r="2" fill="currentColor" opacity="0.4"/>
  <circle cx="6" cy="32" r="1.5" fill="currentColor" opacity="0.3"/>
  <circle cx="32" cy="35" r="1" fill="currentColor" opacity="0.2"/>
  
  <!-- Gradient definitions -->
  <defs>
    <linearGradient id="gradient1" x1="0%" y1="0%" x2="100%" y2="100%">
      <stop offset="0%" style="stop-color:#A1C2BD;stop-opacity:1" />
      <stop offset="50%" style="stop-color:#708993;stop-opacity:1" />
      <stop offset="100%" style="stop-color:#19183B;stop-opacity:1" />
    </linearGradient>
    <linearGradient id="gradient2" x1="0%" y1="0%" x2="100%" y2="100%">
      <stop offset="0%" style="stop-color:#E7F2EF;stop-opacity:1" />
      <stop offset="100%" style="stop-color:#A1C2BD;stop-opacity:1" />
    </linearGradient>
  </defs>
</svg>

